<svg width="121" height="120" viewBox="0 0 121 120" fill="none" xmlns="http://www.w3.org/2000/svg">
<g clip-path="url(#clip0_5213_10338)">
<path d="M95.6575 40.0299H25.345C24.0506 40.0299 23.0012 41.0932 23.0012 42.4049V85.1549C23.0012 86.4666 24.0506 87.5299 25.345 87.5299H95.6575C96.9519 87.5299 98.0012 86.4666 98.0012 85.1549V42.4049C98.0012 41.0932 96.9519 40.0299 95.6575 40.0299Z" fill="#FCD062"/>
<path d="M23.0012 44.0006V42.6235L25.345 40.0299H95.6575L98.0012 42.6258V44.0029L61.9122 72.6456C61.0286 73.5006 60.1543 73.4913 59.0457 72.6125L23.0012 44.0006Z" fill="#F9B945" fill-opacity="0.341"/>
<path d="M25.345 40.0298C24.7234 40.0298 24.1272 40.2796 23.6877 40.725C23.2481 41.1704 23.0012 41.7749 23.0012 42.4048V43.6659L23.6598 44.1124L59.0364 69.8669C60.1426 70.6696 61.0098 70.6506 61.8934 69.8669L98.0012 43.6636V42.4025C98.0012 41.7726 97.7543 41.1681 97.3148 40.7227C96.8752 40.2773 96.2791 40.0275 95.6575 40.0275L25.345 40.0298Z" fill="#F8B740"/>
<path d="M86.75 67.5023C95.7246 67.5023 103 60.2269 103 51.2523C103 42.2777 95.7246 35.0024 86.75 35.0024C77.7754 35.0024 70.5 42.2777 70.5 51.2523C70.5 60.2269 77.7754 67.5023 86.75 67.5023Z" fill="#25B39E"/>
<path d="M86.75 62.5522C92.9908 62.5522 98.05 57.493 98.05 51.2521C98.05 45.0113 92.9908 39.9524 86.75 39.9524C80.5091 39.9524 75.45 45.0113 75.45 51.2521C75.45 57.493 80.5091 62.5522 86.75 62.5522Z" fill="#60C5B8"/>
<path d="M80.5249 52.1024L84.0824 55.5322L92.9774 46.9598" stroke="white" stroke-width="2" stroke-linecap="round" stroke-linejoin="round"/>
</g>
<defs>
<clipPath id="clip0_5213_10338">
<rect width="120" height="120" fill="white" transform="translate(0.5)"/>
</clipPath>
</defs>
</svg>
