<svg width="201" height="111" viewBox="0 0 201 111" fill="none" xmlns="http://www.w3.org/2000/svg">
<g clip-path="url(#clip0_5213_10361)">
<g clip-path="url(#clip1_5213_10361)">
<path d="M0.908752 83.7277H5.98904V109.515H0.908752V83.7277ZM35.7337 110.566L16.1834 92.9073L17.6899 93.7482L17.795 109.515H12.6446V82.7117H12.8548L31.9848 100.3L30.8636 99.8095L30.7585 83.7277H35.8739V110.566H35.7337ZM47.665 92.9073L47.5248 94.2036L48.2956 93.2226L56.7044 83.7277H63.2912L52.6401 95.2898L63.3263 109.515H56.8796L48.9263 98.5131L47.665 99.7744V109.515H42.5146V83.7277H47.665V92.9073ZM74.9969 83.7277C76.6086 83.7277 78.0451 83.9379 79.3064 84.3584C80.5677 84.7555 81.6188 85.3394 82.4597 86.1102C83.3239 86.8577 83.978 87.7686 84.4217 88.8431C84.8655 89.8942 85.0874 91.0854 85.0874 92.4168C85.0874 93.4679 84.9239 94.519 84.5969 95.5701C84.2933 96.6212 83.7794 97.5788 83.0553 98.4431C82.3546 99.3073 81.4203 100.008 80.2524 100.545C79.0845 101.059 77.6363 101.316 75.9079 101.316H72.2641V109.515H67.1838V83.7277H74.9969ZM75.8728 96.4109C76.6436 96.4109 77.286 96.2825 77.7999 96.0255C78.3137 95.7686 78.7108 95.4416 78.9911 95.0445C79.2947 94.6474 79.505 94.2387 79.6217 93.8182C79.7619 93.3744 79.832 92.9657 79.832 92.592C79.832 92.3117 79.7852 91.9613 79.6918 91.5409C79.6217 91.0971 79.4582 90.6533 79.2013 90.2095C78.9444 89.7657 78.5473 89.392 78.0101 89.0883C77.4962 88.7847 76.7955 88.6328 75.9079 88.6328H72.2641V96.4109H75.8728ZM80.6378 99.5642L87.0145 109.515H81.0933L74.5765 99.7044L80.6378 99.5642ZM95.8079 101.491L86.313 83.7277H92.5845L99.2415 97.1117L97.7349 97.2168L104.287 83.7277H110.558L100.888 101.491V109.515H95.8079V101.491ZM122.214 83.7277C124.34 83.7277 126.138 84.0898 127.61 84.8139C129.081 85.5146 130.202 86.519 130.973 87.827C131.744 89.1117 132.129 90.6416 132.129 92.4168C132.129 93.4679 131.966 94.5307 131.639 95.6051C131.335 96.6562 130.833 97.6139 130.132 98.4781C129.455 99.3423 128.532 100.043 127.365 100.58C126.22 101.094 124.807 101.351 123.125 101.351H119.481V109.515H114.401V83.7277H122.214ZM123.09 96.4109C123.861 96.4109 124.503 96.2825 125.017 96.0255C125.531 95.7452 125.928 95.4066 126.208 95.0095C126.512 94.589 126.722 94.1569 126.839 93.7131C126.979 93.2693 127.049 92.8839 127.049 92.5569C127.049 92.3 127.002 91.9613 126.909 91.5409C126.839 91.0971 126.675 90.6533 126.419 90.2095C126.162 89.7657 125.765 89.392 125.227 89.0883C124.713 88.7847 124.013 88.6328 123.125 88.6328H119.481V96.4109H123.09ZM134.923 83.7277H152.301V88.6328H146.03V109.515H140.95V88.6328H134.923V83.7277ZM161.76 99.9847C161.76 100.802 162.005 101.585 162.496 102.332C162.986 103.08 163.628 103.687 164.423 104.154C165.24 104.621 166.128 104.855 167.085 104.855C168.136 104.855 169.071 104.621 169.888 104.154C170.706 103.687 171.348 103.08 171.815 102.332C172.306 101.585 172.551 100.802 172.551 99.9847V83.7277H177.561V100.09C177.561 101.982 177.094 103.663 176.16 105.135C175.226 106.583 173.964 107.728 172.374 108.569C170.788 109.386 169.024 109.795 167.085 109.795C165.17 109.795 163.418 109.386 161.83 108.569C160.265 107.728 159.015 106.583 158.081 105.135C157.147 103.663 156.68 101.982 156.68 100.09V83.7277H161.76V99.9847ZM197.456 89.9642C196.475 89.427 195.471 88.9832 194.443 88.6328C193.439 88.2825 192.493 88.1073 191.605 88.1073C190.507 88.1073 189.643 88.3292 189.012 88.773C188.382 89.2168 188.066 89.8825 188.066 90.7701C188.066 91.3774 188.3 91.9263 188.767 92.4168C189.258 92.8839 189.877 93.3044 190.624 93.6781C191.395 94.0518 192.189 94.3905 193.007 94.6942C193.754 94.9744 194.49 95.3131 195.214 95.7102C195.961 96.0839 196.627 96.5628 197.211 97.1467C197.795 97.7073 198.262 98.4197 198.612 99.2839C198.963 100.125 199.138 101.164 199.138 102.402C199.138 103.71 198.799 104.925 198.122 106.046C197.445 107.167 196.452 108.078 195.144 108.779C193.836 109.456 192.224 109.795 190.309 109.795C189.328 109.795 188.323 109.701 187.296 109.515C186.291 109.304 185.299 109.001 184.318 108.604C183.336 108.183 182.391 107.658 181.48 107.027L183.722 103.068C184.329 103.512 184.983 103.909 185.684 104.259C186.408 104.586 187.132 104.843 187.856 105.03C188.58 105.217 189.246 105.31 189.853 105.31C190.461 105.31 191.068 105.228 191.675 105.065C192.306 104.878 192.82 104.574 193.217 104.154C193.637 103.734 193.847 103.15 193.847 102.402C193.847 101.888 193.672 101.421 193.322 101.001C192.995 100.58 192.539 100.195 191.955 99.8445C191.395 99.4942 190.776 99.1905 190.099 98.9336C189.304 98.6299 188.487 98.2796 187.646 97.8825C186.805 97.4854 186.011 97.0066 185.264 96.446C184.539 95.862 183.944 95.1496 183.477 94.3088C183.033 93.4445 182.811 92.3934 182.811 91.1555C182.811 89.6606 183.138 88.3642 183.792 87.2664C184.469 86.1686 185.415 85.3044 186.63 84.6737C187.845 84.0197 189.246 83.6577 190.834 83.5876C192.913 83.5876 194.595 83.8328 195.88 84.3234C197.188 84.8139 198.355 85.3978 199.383 86.0752L197.456 89.9642Z" fill="white"/>
</g>
<g clip-path="url(#clip2_5213_10361)">
<path d="M80.3865 49.5258L80.6943 49.6828C82.8929 49.4316 84.0928 49.3248 84.0928 49.3248L84.3754 48.9918C84.3692 48.9039 82.8238 36.0074 80.8639 29.1226C84.2372 33.6518 88.1696 43.5016 89.9474 48.6777L90.2426 48.8913C92.6108 48.8913 93.4651 48.772 93.4965 48.7657L93.7604 48.4956C93.7918 48.2506 96.8259 24.0972 97.1525 21.8672L97.008 21.5594C94.3383 19.8508 93.7541 19.4676 93.7478 19.4613L93.2641 19.6812L90.7703 39.1357C89.539 36.8492 83.3641 23.8145 77.9304 18.5944L77.5409 18.5567C75.3046 20.0015 74.4817 20.6423 74.4503 20.6674L74.3498 21.0192C74.3623 21.0506 78.0623 31.1768 79.3312 40.8004C74.7141 35.618 67.4147 31.8678 64.211 30.2219C63.8906 30.0586 63.608 29.9141 63.3755 29.7885L62.9861 29.8702C61.3779 31.874 60.3728 33.1932 60.3666 33.2058L60.354 33.5324C60.4357 33.6706 68.4637 47.8674 73.3195 67.1273L73.6776 67.3597C76.1275 66.9137 77.9995 66.4049 78.012 66.3986L78.2319 66.0154C78.1816 65.8144 73.1499 46.8372 68.269 37.7475C72.8987 40.7376 76.9316 43.5895 80.3865 49.5258Z" fill="white"/>
<path d="M117.606 60.5189C117.399 60.4686 96.5118 55.7322 79.2684 61.6621L79.0611 62.0265C79.4003 63.5467 79.7709 65.5882 79.7772 65.6071L80.1541 65.8584C80.3426 65.8207 99.1439 61.8946 116.444 66.1787L116.827 65.94C117.424 63.264 117.838 60.8958 117.845 60.8769L117.606 60.5189Z" fill="white"/>
<path d="M105.765 40.0906C105.74 39.9147 103.183 22.6085 100.494 13.7072C100.457 13.569 100.319 13.4811 100.187 13.4811C97.6488 13.5564 95.312 13.4811 95.2931 13.4811C95.2868 13.4811 95.2868 13.4811 95.2806 13.4811C95.1298 13.4811 94.9979 13.5941 94.9727 13.7449L94.3257 17.5956C94.3069 17.7212 94.3634 17.8469 94.4702 17.916L97.988 20.1334C98.277 21.6473 100.878 35.4986 102.052 42.0693C102.071 42.1699 102.14 42.2578 102.234 42.3018C102.272 42.3206 102.316 42.3269 102.36 42.3269C102.417 42.3269 102.479 42.3081 102.53 42.2766C104.307 41.1271 105.595 40.4172 105.608 40.411C105.721 40.3481 105.784 40.2225 105.765 40.0906Z" fill="#F49819"/>
<path d="M131.847 35.1406C132.437 35.1531 134.033 35.1845 134.139 35.2034C134.284 35.2222 134.416 35.1468 134.479 35.0212C134.661 34.6129 134.761 34.1857 134.95 33.7711C135.459 32.6844 136.118 31.4846 136.753 29.7194C136.803 29.5749 136.74 29.4053 136.602 29.3362C136.395 29.2231 136.15 29.0849 135.892 28.9279C135.314 28.5887 133.662 28.1364 132.902 27.8349C132.82 27.8035 132.72 27.8035 132.638 27.8474C131.357 28.5133 120.985 38.6772 118.115 41.4977L122.254 21.1448C122.28 21.0255 122.229 20.9061 122.135 20.837C122.085 20.7993 120.879 19.8885 118.567 19.5806C118.46 19.5681 118.353 19.6058 118.284 19.6937C112.844 26.2393 107.128 41.1271 106.669 42.151L103.12 44.3936C103.013 44.4627 102.957 44.5883 102.976 44.714L103.642 48.6715C103.667 48.816 103.792 48.929 103.937 48.9353C103.937 48.9353 105.13 48.9918 107.373 49.1238C107.505 49.13 107.624 49.0609 107.681 48.9416L108.234 47.7104C110.834 41.9311 114.226 32.0185 116.89 28.2683C116.802 28.7834 116.676 29.4367 116.551 30.1026C115.853 33.8465 113.397 45.361 113.366 49.4127C113.366 49.5698 113.485 49.708 113.642 49.7268C114.22 49.8022 114.622 49.8524 115.231 49.9404L116.262 50.0723C116.274 50.0723 116.287 50.0723 116.306 50.0723C116.4 50.0723 116.494 50.0283 116.551 49.9529C120.213 45.2793 124.981 39.8644 129.642 35.084C130.232 35.1154 131.087 35.128 131.847 35.1406Z" fill="#F49819"/>
<path d="M103.007 5.22056C103.007 2.35608 100.683 0.0255432 97.8184 0.0255432C94.9539 0.0255432 92.6234 2.35608 92.6234 5.22056C92.6234 8.08504 94.9539 10.4156 97.8184 10.4156C100.683 10.4093 103.007 8.07876 103.007 5.22056Z" fill="#F49819"/>
<path d="M140.302 47.8862C139.008 46.1462 137.833 44.8333 137.821 44.8207C137.72 44.7139 137.563 44.6825 137.437 44.7516L128.241 49.6828C129.146 47.1261 133.003 38.9473 133.989 37.0314C134.039 36.9309 134.033 36.8178 133.976 36.7236C133.92 36.6293 133.819 36.5728 133.706 36.5728L129.742 36.5477C129.623 36.5477 129.516 36.6105 129.466 36.7173C129.384 36.868 121.563 52.051 118.228 66.6184C118.19 66.7755 118.278 66.9325 118.429 66.9828C120.577 67.7491 121.651 68.3208 121.664 68.3271C121.746 68.371 121.852 68.3773 121.94 68.3396C122.028 68.3019 122.097 68.2266 122.116 68.1323C122.141 68.0444 124.208 60.2927 125.496 56.4608C126.828 63.3959 127.958 69.7782 127.971 69.8473C127.983 69.9289 128.034 70.0043 128.103 70.0483C128.153 70.086 128.216 70.1048 128.279 70.1048C128.297 70.1048 128.316 70.1048 128.335 70.0985L131.702 69.4578C131.784 69.4452 131.859 69.395 131.903 69.3259C131.947 69.2568 131.966 69.1688 131.953 69.0872L129.02 54.0738C129.749 53.678 132.638 52.1327 140.189 48.3574C140.271 48.3134 140.333 48.238 140.352 48.1501C140.377 48.0558 140.358 47.9616 140.302 47.8862ZM128.913 39.0227L129.296 38.1998L130.408 38.25L130.904 37.1884L132.035 37.1947L131.489 38.3003L132.613 38.3505L132.154 39.2928L131.043 39.1986L129.566 42.1761L128.618 42.0568L130.006 39.1169L128.913 39.0227Z" fill="#F49819"/>
</g>
</g>
<defs>
<clipPath id="clip0_5213_10361">
<rect width="200" height="110.949" fill="white" transform="translate(0.5 0.0255432)"/>
</clipPath>
<clipPath id="clip1_5213_10361">
<rect width="200" height="29.1971" fill="white" transform="translate(0.5 81.7774)"/>
</clipPath>
<clipPath id="clip2_5213_10361">
<rect width="80.0107" height="70.073" fill="white" transform="translate(60.354 0.0255432)"/>
</clipPath>
</defs>
</svg>
